# xmcd
#
# Track frame offsets:
#	150
#	37944
#	74731
#	104379
#	142365
#	172046
#	201478
#	229613
#	262315
#	292921
#	323104
#
# Disc length: 4648 seconds
#
# Revision: 0
# Processed by: cddbd v1.5.1PL0 Copyright (c) Steve Scherf et al.
# Submitted via: audiograbber 1.83.01
#
DISCID=b312260b
DTITLE=Various Artist - Club Crow Collection 27.
DYEAR=1900
DGENRE=
TTITLE0=Back To Basics vs. KTF. - Mamakossa. (KTF Main Rmx)
TTITLE1=Bini And Martini. - Stop. (Paul C New Jack Rmx)
TTITLE2=Junior Duffer. - Voices In The Shadow. (Original Mix)
TTITLE3=David Morales feat. Lea Lorien. - How Would U Feel (Peter Rauhof
TTITLE4=Danni Minogue vs. Flower Power. - You Want Forget About Me. Orig
TTITLE5=AMV. - Money For Nothing. (Promo A1)
TTITLE6=DJ Kiriloff and Секвенция. - You Make The Night Shine.
TTITLE7=Gregor Salto feat. Red. - Looking Good. (Original Mix)
TTITLE8=Катя Чехова. - Крылья. (DJ Ivan Scratchin` Rmx)
TTITLE9=Чугунный Скороход. - Electrolove. (Extended Mix)
TTITLE10=Sasha Ditth. - Russian Girls. (Club Mix)
EXTD=
EXTT0=
EXTT1=
EXTT2=
EXTT3=
EXTT4=
EXTT5=
EXTT6=
EXTT7=
EXTT8=
EXTT9=
EXTT10=
PLAYORDER=
